<svg width="64" height="64" viewBox="0 0 64 64" fill="none" xmlns="http://www.w3.org/2000/svg">
<g clip-path="url(#clip0_260_23)">
<rect width="64" height="64" rx="15" fill="#1B1B1B"/>
<path d="M181.964 96.6578L181.937 95.8126L182 95.2342L181.92 95.2964L181.562 84.4007L181.744 84.6686L181.555 83.6351L181.533 83.5148L181.532 83.4602L181.516 82.9745L181.447 83.0392L179.593 72.8785L179.99 73.4643L179.375 71.681L179.285 71.1901L179.227 71.2545L175.566 60.6422L175.582 60.6211L175.515 60.4944L175.366 60.0615L175.319 60.1235L170.118 50.2704L170.132 50.2473L170.04 50.123L169.843 49.7508L169.816 49.7939L168.671 48.0999L168.67 48.0983L166.19 44.4294L166.215 44.4286L165.936 44.0531L165.871 43.9289L165.845 43.9298L159.223 35.0131L159.314 35.0039L158.943 34.6358L158.869 34.5358L158.845 34.5383L150.941 26.6861L151.042 26.6687L150.575 26.3227L150.496 26.2443L150.474 26.248L141.434 19.5597L141.547 19.5324L141.018 19.2447L140.98 19.2237L140.899 19.1638L140.897 19.1643L139.788 18.3422L140.04 18.7123L130.862 13.7155L130.985 13.6766L130.32 13.4206L129.4 12.92L129.538 13.1193L119.398 9.21421L119.53 9.16191L118.774 8.97401L118.017 8.68238L118.104 8.80718L107.217 6.10034L107.354 6.03363L106.521 5.92728L105.874 5.7665L105.934 5.8524L94.5007 4.39269L94.6382 4.31146L93.7498 4.29687L93.1865 4.22499L93.2314 4.28833L81.4247 4.09432L81.5559 4L80.6413 4.08148L80.148 4.07338L80.1832 4.12225L68.1642 5.19252L68.2795 5.08996L67.3831 5.26209L66.9466 5.30093L66.9754 5.34039L54.8959 7.66047L54.9854 7.55792L54.1576 7.80229L53.7722 7.87642L53.7964 7.90896L41.7832 11.456L41.8395 11.3643L41.1362 11.647L40.7962 11.7475L40.8172 11.7755L28.9994 16.5296L29.0212 16.4608L28.4892 16.7349L28.1887 16.856L28.2072 16.8803L16.726 22.8004L16.723 22.7589L16.3769 22.9803L16.112 23.117L16.1292 23.139L5.15517 30.1649L5.14149 30.1458L4.94325 30.3006L4.71523 30.4465L4.73089 30.4664L-5.46147 38.4246L-5.477 38.4052L-5.66658 38.5848L-5.86228 38.7376L-5.998 38.8439L-5.95819 38.861L-15.1191 47.5386L-15.1368 47.517L-15.3248 47.7334L-15.7597 48.1453L-15.6849 48.148L-23.7096 57.3879L-23.7301 57.3631L-23.9127 57.6217L-24.3999 58.183L-24.293 58.1609L-31.1273 67.8486L-31.1518 67.8194L-31.2856 68.059L-31.3239 68.1273L-31.8032 68.8066L-31.6759 68.7573L-37.2804 78.7897L-37.3104 78.7545L-37.4645 79.1194L-37.8861 79.8742L-37.7527 79.8019L-42.0907 90.0724L-42.1286 90.0287L-42.2551 90.4614L-42.5875 91.2483L-42.4593 91.1604L-45.4952 101.55L-45.5448 101.494L-45.6291 102.009L-45.858 102.792L-45.7415 102.696L-47.4401 113.077L-47.5077 113.001L-47.5289 113.62L-47.6517 114.371L-47.5512 114.272L-47.9015 124.494L-48 124.385L-47.9238 125.142L-47.9477 125.841L-47.8632 125.743L-46.8676 135.635L-47.0236 135.462L-46.7883 136.423L-46.7246 137.056L-46.6558 136.963L-44.3609 146.33L-44.6449 146.015L-44.1194 147.316L-43.9822 147.876L-43.9278 147.79L-40.4696 156.348L-41.1434 155.61L-39.9361 157.668L-39.7403 158.153L-39.6981 158.074L-34.3447 167.198L-34.3546 167.221L-34.2684 167.328L-34.0283 167.737L-33.9968 167.666L-27.2791 176.027L-27.2876 176.05L-27.178 176.152L-26.9061 176.491L-26.895 176.46L-23.9576 179.661L-22.6636 181.071L-22.7081 181.08L-22.3554 181.408L-22.2702 181.514L-22.2465 181.509L-14.2687 188.931L-14.3516 188.954L-13.9212 189.254L-13.8304 189.339L-13.8088 189.333L-4.66093 195.714L-4.74885 195.747L-4.24328 196.006L-4.15009 196.071L-4.14904 196.07L-2.38281 197.304L-2.97389 196.656L6.07996 201.297L5.98963 201.339L6.56041 201.543L6.65612 201.592L6.65791 201.591L7.79227 202.174L7.53595 201.892L17.8162 205.572L17.7264 205.624L18.3503 205.763L19.2881 206.099L19.1456 205.941L30.3991 208.456L30.3145 208.517L30.8878 208.575L30.9699 208.583L31.7292 208.753L31.6385 208.652L43.6483 209.876L43.5731 209.943L44.2354 209.936L44.8678 210L44.805 209.929L57.3787 209.78L57.3185 209.85L57.954 209.773L58.4924 209.767L58.4461 209.713L71.3811 208.144L71.3392 208.213L71.9176 208.079L72.3773 208.024L72.3414 207.982L85.4372 204.963L85.4153 205.023L85.9053 204.855L86.3001 204.764L86.2713 204.73L99.3129 200.264L99.3086 200.311L99.6946 200.133L100.031 200.018L100.007 199.989L112.769 194.108L112.777 194.141L113.058 193.975L113.344 193.843L113.324 193.818L125.559 186.588L125.573 186.608L125.767 186.465L125.999 186.328L126.007 186.323L125.989 186.301L137.397 177.875L137.414 177.896L137.606 177.72L137.899 177.504L137.865 177.483L148.159 168.075L148.179 168.1L148.373 167.88L148.714 167.568L148.66 167.555L157.672 157.344L157.695 157.374L157.887 157.101L158.248 156.691L158.174 156.691L165.772 145.861L165.8 145.899L165.982 145.561L166.329 145.067L166.241 145.082L172.324 133.825L172.36 133.875L172.524 133.456L172.824 132.901L172.729 132.933L177.231 121.443L177.278 121.51L177.408 120.991L177.639 120.402L177.544 120.448L180.421 108.931L180.489 109.027L180.56 108.375L180.709 107.778L180.619 107.834L181.86 96.5074L181.964 96.6578ZM177.054 120.315L176.069 118.925L176.057 118.908L179.046 106.965L180.036 108.38L177.054 120.315ZM125.672 185.901L124.524 184.456L135.948 176.014L137.084 177.473L125.672 185.901ZM125.245 186.181L112.999 193.418L111.842 191.99L124.1 184.74L125.245 186.181ZM99.1697 199.774L85.9193 204.311L84.7593 202.932L98.0216 198.383L99.1697 199.774ZM17.5531 204.936L6.80594 201.089L5.94722 200.144L16.6983 203.989L17.5531 204.936ZM5.53074 200.442L-3.95767 195.579L-4.56905 194.91L4.91682 199.766L5.53074 200.442ZM-5.84394 194.268L-13.5946 188.861L-13.6124 188.841L-5.8749 194.234L-5.84394 194.268ZM-14.5254 47.6775L-5.44956 39.0803L-1.67973 40.7056L-9.16652 47.7913L-9.18398 47.7788L-9.25567 47.8614L-14.5254 47.6775ZM16.7666 23.3534L28.1674 17.4746L26.5572 22.5563L26.4375 22.6043L26.4453 22.6252L17.0678 27.4482L16.7666 23.3534ZM40.6008 12.4126L36.9379 18.388L36.8053 18.4269L36.8098 18.4483L27.1671 22.3119L28.7996 17.1602L40.6008 12.4126ZM53.4501 8.54343L47.5967 15.2495L47.4622 15.2751L47.4635 15.2961L37.6651 18.1744L41.3848 12.1058L53.4501 8.54343ZM149.778 26.3669L125.713 30.4808L125.642 30.4081L125.617 30.4289L118.546 25.1002L140.788 19.7159L149.778 26.3669ZM180.817 82.4183L180.156 81.4531L178.231 70.8798L178.889 71.8464L180.817 82.4183ZM181.401 94.9472L180.567 93.7392L180.198 82.4137L181.029 83.6268L181.401 94.9472ZM-39.4168 157.549L-29.1069 138.306L-24.8008 145.502L-24.8325 145.524L-24.7561 145.617L-34.0909 166.627L-39.4168 157.549ZM93.7841 4.81625L105.594 6.32378L90.2224 13.8123L90.1115 13.784L90.1012 13.8054L80.6807 12.5607L93.7841 4.81625ZM55.8428 207.496L42.8036 207.659L41.6882 206.396L54.7356 206.226L55.8428 207.496ZM-33.7645 167.143L-24.3955 146.056L-19.0035 152.625L-19.0338 152.65L-18.9441 152.732L-27.0781 175.465L-33.7645 167.143ZM170.603 131.435L164.33 143.035L163.264 141.582L163.252 141.564L169.533 129.952L170.603 131.435ZM156.263 154.608L155.159 153.132L162.956 142.021L164.049 143.512L156.263 154.608ZM123.78 184.337L111.517 191.589L110.357 190.156L122.631 182.89L123.78 184.337ZM15.9776 203.189L5.21753 199.341L4.35509 198.392L15.1152 202.232L15.1267 202.245L15.9776 203.189ZM125.218 30.7662L107.383 45.8387L102.081 41.7472L117.989 25.3176L125.218 30.7662ZM-7.44351 192.52L-15.194 187.118L-15.2229 187.087L-7.47446 192.486L-7.44561 192.517L-7.44351 192.52ZM-0.834997 40.6443L7.43164 34.196L18.0294 47.9037L18.0281 47.9045L18.0438 47.9246L11.8151 52.7599L11.7993 52.7429L11.7892 52.7523L-0.834997 40.6443ZM58.7445 13.6744L68.9672 12.7916L65.0231 31.804L64.938 31.8016L64.9418 31.8316L57.3686 32.4315L58.7445 13.6744ZM54.296 205.721L41.2425 205.891L40.1236 204.623L53.0946 204.443L53.0999 204.467L53.1943 204.455L54.296 205.721ZM-5.57276 132.86L-1.55572 137.646L-1.63813 137.662L-1.46997 137.811L-18.615 152.296L-24.0878 145.629L-5.57276 132.86ZM18.775 48.0342L25.4451 43.8018L41.4426 68.5185L41.4176 68.5311L41.4353 68.5537L36.9839 71.3459L18.775 48.0342ZM27.0874 22.8936L36.917 18.9549L40.5972 36.3369L40.55 36.3505L40.5601 36.3747L33.1976 39.2842L27.0874 22.8936ZM41.2395 36.6831L48.7769 34.5152L57.5405 62.2233L57.4112 62.2456L57.4379 62.2804L52.5033 63.65L41.2395 36.6831ZM49.273 34.4007L56.8993 33.0045L63.1306 61.2268L62.9518 61.2389L62.9846 61.2817L58.0452 62.1359L49.273 34.4007ZM174.282 116.409L173.288 115.008L173.329 114.905L173.301 114.893L176.281 103.014L177.28 104.44L174.282 116.409ZM162.638 141.588L154.838 152.703L153.731 151.221L161.54 140.093L162.638 141.588ZM68.3121 204.058L54.9516 205.699L53.8032 204.38L67.0985 202.738L67.1057 202.761L67.1838 202.743L68.3121 204.058ZM57.4048 32.9407L65.0077 32.3387L68.7089 60.8482L63.6428 61.1921L57.4048 32.9407ZM97.4589 70.6244L94.032 67.9127L101.836 42.2013L107.083 46.2512L97.4589 70.6244ZM178.084 78.4293L177.425 77.4667L177.421 77.3349L177.392 77.3297L175.491 66.8519L176.16 67.8351L178.084 78.4293ZM161.848 139.654L161.897 139.585L161.872 139.569L168.13 128.005L169.203 129.494L162.919 141.111L161.848 139.654ZM145.336 163.533L144.208 162.054L153.401 151.629L154.517 153.123L145.336 163.533ZM144.979 163.903L134.573 173.421L133.429 171.949L143.845 162.418L144.979 163.903ZM12.1641 53.1339L18.3574 48.326L36.5506 71.6175L36.549 71.6184L36.5653 71.6389L32.4115 74.8342L12.1641 53.1339ZM80.7315 33.6072L79.4858 61.8187L74.6946 61.0813L73.4994 32.5863L80.7315 33.6072ZM89.2848 65.6955L89.9438 66.5786L89.9401 66.5763L90.1348 66.8365L86.3727 65.2527L85.5167 64.112L89.2848 65.6955ZM81.4267 198.881L69.5992 170.642L80.2611 166.868L94.7338 194.3L81.4267 198.881ZM-9.03595 190.777L-9.1347 190.708L-9.06721 190.742L-9.05149 190.76L-9.03595 190.777ZM-5.02745 132.719L20.7334 129.76L23.4416 132.917L-0.982852 137.537L-5.02745 132.719ZM15.7758 117.733L16.545 118.65L17.4624 122.023L16.693 121.107L15.7758 117.733ZM15.7375 102.102L16.9479 97.7877L18.0915 99.1769L16.8854 103.485L15.7375 102.102ZM21.4711 88.1884L22.6537 89.6412L20.3293 93.8404L19.1423 92.3937L21.4711 88.1884ZM167.967 127.171L139.494 112.25L143.307 102.65L172.675 115.181L167.967 127.171ZM16.2264 117.479L15.4699 116.577L15.0019 112.767L15.9473 113.9L16.4177 117.707L16.2501 117.507L16.2262 117.478L16.2264 117.479ZM48.0841 67.8586L43.3854 70.2093L42.2037 68.7079L46.9089 66.3529L48.0841 67.8586ZM59.2588 64.6437L60.4038 66.1287L55.4292 67.5022L54.2824 66.022L59.2588 64.6437ZM84.5986 63.7357L85.5577 65.0138L81.3424 63.8348L80.3827 62.5619L84.5986 63.7357ZM97.386 71.2164L97.6601 71.585L95.376 69.7747L95.1049 69.4112L97.386 71.2164ZM176.859 77.2341L146.977 71.8765L145.429 62.8329L174.812 65.9544L176.859 77.2341ZM161.441 139.297L134.195 122.055L139.277 112.712L167.753 127.634L161.441 139.297ZM25.1555 173.853L31.9774 153.872L39.5705 154.472L35.3637 174.749L25.1555 173.853ZM76.8546 64.9008L72.069 64.7048L70.9994 63.2997L75.7886 63.4932L76.8546 64.9008ZM144.922 62.8765L146.466 71.898L123.083 76.9361L122.002 70.2739L144.922 62.8765ZM80.0545 166.4L69.4487 170.154L65.358 150.84L73.201 148.019L80.0545 166.4ZM17.1661 104.62L18.2678 105.949L17.6381 110.183L16.5342 108.858L17.1661 104.62ZM60.7403 66.5653L61.8805 68.0471L56.9112 69.4156L55.7673 67.9384L60.7403 66.5653ZM98.8379 73.1685L99.1036 73.5253L96.8252 71.7182L96.5605 71.3634L98.8379 73.1685ZM96.4367 133.938L102.538 128.302L119.222 140.23L110.942 147.851L96.4367 133.938ZM57.7047 144.143L62.7481 143.415L56.4922 152.535L48.875 153.611L57.7047 144.143ZM63.4409 143.304L68.5351 142.022L64.8813 150.457L57.2267 152.363L63.4409 143.304ZM79.7629 137.415L81.0723 143.725L73.6726 147.257L74.7872 139.8L79.7629 137.415ZM74.2423 140.012L73.1225 147.505L65.5306 150.236L69.1624 141.851L74.2423 140.012ZM36.2635 141.359L40.557 142.749L24.0607 151.794L17.5539 149.641L36.2635 141.359ZM24.8236 151.957L41.2397 142.957L45.8021 143.836L31.7473 153.33L24.8236 151.957ZM32.5483 153.404L46.5243 143.963L51.299 144.317L39.7945 153.978L32.5483 153.404ZM117.423 107.073L120.237 100.047L142.808 102.531L139.018 112.072L117.423 107.073ZM110.546 148.176L101.445 154.974L89.3351 139.31L96.0456 134.268L110.546 148.176ZM85.4148 133.992L89.8394 130.663L95.6027 133.963L89.0281 138.903L85.4148 133.992ZM94.2291 126.628L101.975 128.129L96.0303 133.62L90.2484 130.309L94.2291 126.628ZM112.942 114.303L101.76 116.94L104.112 112.64L116.517 107.75L112.942 114.303ZM106.155 107.585L119.576 100.331L116.882 107.057L104.39 111.982L106.155 107.585ZM107.52 102.463L121.637 92.7914L119.856 99.5998L106.35 106.9L107.52 102.463ZM101.414 117.546L112.516 114.928L108.093 121.22L98.4956 121.702L101.414 117.546ZM98.1066 122.233L107.64 121.754L102.423 127.696L94.636 126.186L98.1066 122.233ZM120.393 99.5507L122.251 92.451L145.454 92.3972L142.977 102.035L120.393 99.5507ZM121.818 92.0501L107.623 101.775L108.186 97.3443L122.659 85.2557L121.818 92.0501ZM122.735 84.529L108.195 96.6734L108.148 92.3151L122.631 77.8457L122.735 84.529ZM119.586 139.864L102.895 127.93L108.288 121.787L126.9 131.548L119.586 139.864ZM127.225 131.144L108.604 121.377L113.205 114.832L133.46 122.269L127.225 131.144ZM133.741 121.828L113.474 114.388L117.207 107.547L138.79 112.543L133.741 121.828ZM146.723 81.7841L123.239 84.3632L123.132 77.4476L146.511 72.4107L146.723 81.7841ZM122.604 77.1533L108.066 91.6769L107.404 87.4488L121.554 70.6839L122.604 77.1533ZM106.888 87.4315L107.639 92.2312L107.694 97.1967L107.05 102.256L105.713 107.322L103.704 112.327L101.047 117.185L97.7884 121.824L93.9695 126.174L89.6589 130.161L84.9188 133.727L79.8241 136.82L74.4578 139.392L68.9008 141.403L63.2376 142.829L57.5577 143.648L51.9467 143.853L46.4904 143.448L41.2604 142.441L36.3426 140.848L31.8046 138.705L27.7013 136.041L24.8973 133.599L23.1995 130.897L21.3342 126.652L20.1055 122.152L19.5222 117.461L19.5955 112.647L20.315 107.775L21.6735 102.913L23.653 98.127L26.22 93.4857L29.3428 89.0512L32.9792 84.8856L37.0738 81.0471L41.5795 77.5878L46.4298 74.5546L51.5589 71.9973L56.8931 69.9502L62.3687 68.4423L67.8955 67.4969L73.4092 67.1353L78.8187 67.3653L84.0556 68.1813L89.0343 69.5824L93.6911 71.5467L97.9451 74.0503L101.739 77.0593L103.575 79.0105L105.458 82.8644L106.888 87.4315ZM33.8715 77.4479L35.062 78.9402L31.3107 82.4568L30.1159 80.9694L33.8715 77.4479ZM55.2486 68.0995L56.404 69.5914L51.5404 71.4579L50.3812 69.973L55.2486 68.0995ZM45.93 74.2659L41.4936 77.0401L40.3116 75.5507L44.7543 72.7723L45.93 74.2659ZM41.076 77.3321L36.9539 80.4968L35.768 79.0094L39.8918 75.8399L41.076 77.3321ZM38.388 73.9408L39.5753 75.4407L35.4502 78.6111L34.2585 77.118L38.388 73.9408ZM32.8224 84.3348L31.6307 82.8548L35.3805 79.3395L36.5658 80.8257L32.8224 84.3348ZM46.3767 74.0114L45.2058 72.5237L49.8971 70.1793L51.0642 71.6741L46.3767 74.0114ZM44.8839 72.1144L43.7073 70.6185L48.4045 68.2687L49.5767 69.7692L44.8839 72.1144ZM31.2767 83.2262L32.4645 84.7014L29.1513 88.4971L27.9611 87.0267L31.2767 83.2262ZM28.8252 88.9032L25.9905 92.9288L24.8037 91.4718L27.6429 87.4419L28.8252 88.9032ZM23.1312 98.0597L21.361 102.34L20.1983 100.931L21.9707 96.6466L23.1312 98.0597ZM19.7993 107.796L19.1742 112.027L18.0732 110.706L18.7027 106.473L19.7993 107.796ZM19.0871 112.717L19.0252 116.787L17.9867 115.546L18.0487 111.471L19.0871 112.717ZM19.4984 121.379L18.5593 120.261L18.0892 116.461L19.0261 117.581L19.4984 121.379ZM20.5455 125.689L19.7851 124.785L18.8664 121.418L19.6262 122.323L20.5455 125.689ZM20.8775 126.875L22.0349 129.509L21.6509 129.053L20.4969 126.422L20.8775 126.875ZM87.5156 67.6257L88.464 68.8917L84.2595 67.7082L83.3091 66.4477L87.5156 67.6257ZM89.2794 69.1318L88.4338 68.0031L92.1941 69.5882L93.0384 70.7175L89.2794 69.1318ZM93.9763 71.123L93.3155 70.2392L96.47 72.0928L97.131 72.9798L93.9763 71.123ZM100.545 75.4619L98.2715 73.659L98.0097 73.3079L100.284 75.1121L100.545 75.4619ZM95.0211 70.1492L95.6854 71.0404L92.527 69.1844L91.8614 68.2949L95.0211 70.1492ZM78.3147 66.8327L73.5344 66.6295L72.4707 65.2326L77.254 65.4285L78.3147 66.8327ZM78.9834 66.8741L77.9658 65.5273L82.5121 66.2352L83.5276 67.582L78.9834 66.8741ZM71.8214 65.2191L72.9155 66.6559L67.9848 66.9793L66.8888 65.5449L71.8214 65.2191ZM66.2902 65.5989L67.408 67.0622L62.4209 67.9154L61.2966 66.4541L66.2902 65.5989ZM24.5249 91.9352L25.6996 93.3772L23.383 97.5652L22.2043 96.1293L24.5249 91.9352ZM20.0186 101.512L21.1537 102.888L19.9531 107.185L18.8159 105.813L20.0186 101.512ZM16.5472 114.618L17.4893 115.744L17.9595 119.546L17.0172 118.422L16.5472 114.618ZM87.0128 66.9546L82.8026 65.7756L81.8474 64.5062L86.061 65.6846L87.0128 66.9546ZM81.052 64.2945L81.9963 65.5498L81.995 65.5495L82.0705 65.6495L77.5232 64.9415L76.5006 63.5912L81.052 64.2945ZM70.3502 63.2865L71.4503 64.7318L66.5162 65.0575L65.4127 63.6172L70.3502 63.2865ZM43.256 70.8673L44.4373 72.3693L39.9928 75.1487L38.8073 73.6513L43.256 70.8673ZM29.7619 81.3409L30.9529 82.8237L27.6362 86.6252L26.441 85.1492L29.7619 81.3409ZM17.5504 110.873L17.4885 114.95L16.4449 113.702L16.5091 109.623L17.5504 110.873ZM18.0871 120.489L19.0066 123.86L18.7188 123.518L18.614 123.393L18.6146 123.394L18.2405 122.949L17.3236 119.579L18.0871 120.489ZM10.843 146.5L31.6669 139.203L35.6363 141.079L16.8503 149.395L10.843 146.5ZM16.9548 149.98L23.7312 152.223L14.4293 171.625L5.35225 168.52L16.9548 149.98ZM40.6069 153.961L52.039 144.361L56.9735 144.181L48.0843 153.713L40.6069 153.961ZM81.5368 143.466L80.2303 137.17L84.994 134.278L88.606 139.187L81.5368 143.466ZM145.556 91.8863L122.343 91.9401L123.217 84.8794L146.692 82.3015L145.556 91.8863ZM121.431 70.0411L107.24 86.8553L105.975 82.8147L119.451 63.8798L121.431 70.0411ZM93.5669 68.2003L94.2366 69.0979L91.0726 67.2409L90.4032 66.3438L93.5669 68.2003ZM91.5886 68.7792L87.8277 67.1938L86.979 66.0614L90.7395 67.6446L91.5886 68.7792ZM65.9395 65.1408L60.9442 65.9966L59.8152 64.5322L64.814 63.6719L65.9395 65.1408ZM54.8996 67.6486L54.9225 67.6783L50.0531 69.5525L48.8884 68.0622L53.7641 66.1834L54.8996 67.6486ZM22.9997 90.0654L24.1792 91.5107L21.8578 95.7065L20.676 94.2632L22.9997 90.0654ZM20.4422 94.7806L21.6057 96.2015L19.8325 100.487L18.6648 99.0727L20.4422 94.7806ZM18.4848 99.6537L19.625 101.035L18.4219 105.338L17.2795 103.96L18.4848 99.6537ZM15.9471 113.106L14.9001 111.852L14.9644 107.77L16.0113 109.025L15.9471 113.106ZM18.9496 124.582L19.3382 125.044L20.4964 127.686L20.1063 127.223L18.9496 124.582ZM24.2288 152.36L31.4668 153.795L24.6441 173.78L24.6431 173.783L14.9301 171.756L24.2288 152.36ZM46.9505 174.45L48.4352 154.189L56.4021 153.064L57.6949 173.009L46.9505 174.45ZM58.197 172.911L56.9044 152.969L64.8704 150.986L68.961 170.301L58.197 172.911ZM73.6703 147.824L81.256 144.203L90.8004 161.36L80.5237 166.206L73.6703 147.824ZM101.757 155.376L110.909 148.541L132.704 171.885L121.266 180.35L101.757 155.376ZM143.858 161.681L119.982 140.184L127.34 131.819L153.045 151.263L143.858 161.681ZM127.654 131.418L133.927 122.488L161.173 139.73L153.361 150.864L127.654 131.418ZM75.032 61.65L79.5866 62.3511L80.6111 63.7096L76.0577 63.0062L75.032 61.65ZM36.8816 72.0384L38.0718 73.5414L33.9408 76.7197L32.7442 75.2211L36.8816 72.0384ZM32.3568 75.5513L33.5527 77.0489L29.7961 80.5711L28.5983 79.0805L32.3568 75.5513ZM29.4382 80.938L26.1161 84.7477L24.9157 83.266L28.2445 79.452L29.4382 80.938ZM26.123 85.5644L27.3104 87.0311L24.4699 91.0626L23.2783 89.6024L26.123 85.5644ZM23.8484 133.36L27.0209 136.124L4.24241 142.206L-0.524206 137.97L23.8484 133.36ZM4.78958 142.588L27.5064 136.523L31.1065 138.859L10.2125 146.181L4.78958 142.588ZM10.2507 146.782L16.4793 149.782L4.87347 168.327L-3.44894 164.207L10.2507 146.782ZM-3.65697 164.673L4.60155 168.762L4.58057 168.795L4.69126 168.833L1.6741 195.659L-8.62604 190.395L-3.65697 164.673ZM2.1598 195.88L5.18285 169.001L14.2072 172.088L14.1906 172.123L14.3001 172.146L13.4293 199.894L2.1598 195.88ZM35.8798 174.759L40.0851 154.489L47.9238 154.23L46.4386 174.495L35.8798 174.759ZM91.2489 161.121L81.7031 143.961L88.914 139.597L101.02 155.257L91.2489 161.121ZM133.098 171.562L111.3 148.214L119.627 140.55L143.5 162.044L133.098 171.562ZM172.828 114.692L143.468 102.164L145.959 92.4705L175.867 102.579L172.828 114.692ZM175.953 102.069L146.058 91.965L147.199 82.3319L177.286 90.0377L175.953 102.069ZM177.298 89.5137L147.231 81.8129L147.018 72.4025L176.927 77.7653L177.298 89.5137ZM174.657 65.4244L145.34 62.31L145.323 62.2107L145.284 62.2234L142.477 53.7737L170.998 54.7949L174.657 65.4244ZM69.9389 62.7456L69.9795 62.7995L65.0398 63.1304L63.933 61.6843L68.8768 61.3487L69.9389 62.7456ZM52.2717 64.2618L53.4374 65.7624L48.5602 67.6419L47.3926 66.1463L52.2717 64.2618ZM18.9086 92.9107L20.0772 94.335L18.2991 98.6288L17.1281 97.2065L18.9086 92.9107ZM17.4028 122.743L17.7934 123.208L18.9503 125.85L18.5586 125.384L17.4028 122.743ZM14.8042 172.251L24.4768 174.27L24.465 174.304L24.5683 174.313L26.0217 202.727L13.9318 200.047L14.8042 172.251ZM53.4931 203.904L46.9832 174.961L57.7279 173.519L57.7299 173.55L57.7938 173.534L66.9406 202.243L53.4931 203.904ZM141.968 53.8501L144.801 62.3793L121.88 69.7769L119.85 63.4623L141.968 53.8501ZM119.242 63.2968L105.735 82.2743L103.883 78.4847L116.365 57.5416L119.242 63.2968ZM74.3205 61.5524L75.3356 62.8945L75.3894 62.9661L70.598 62.7723L69.5252 61.3612L74.3205 61.5524ZM63.3347 61.7394L64.4308 63.1712L64.4632 63.2139L59.4625 64.0747L58.33 62.6048L63.3347 61.7394ZM57.7741 62.7168L58.8954 64.1722L58.9224 64.2074L53.9444 65.5861L52.79 64.1002L57.7741 62.7168ZM41.7524 68.9568L42.9389 70.4642L38.4891 73.2493L37.3009 71.7486L41.7524 68.9568ZM24.5975 83.6812L25.7903 85.1538L22.9447 89.193L21.7498 87.7251L24.5975 83.6812ZM15.6239 102.761L16.7314 104.096L16.099 108.336L14.9893 107.005L15.6239 102.761ZM18.2057 125.782L20.4069 129.283L-5.39582 132.247L-8.66491 126.92L18.2057 125.782ZM4.21182 142.817L9.80695 146.523L-3.89582 163.953L-11.3531 158.891L4.21182 142.817ZM-9.19228 190.651L-9.19513 190.666L-16.7989 185.367L-16.8292 185.334L-9.19228 190.651ZM-7.15128 192.085L-7.77455 191.403L1.61337 196.2L1.61052 196.226L1.7406 196.272L2.35267 196.945L-7.15128 192.085ZM13.4125 200.43L13.4117 200.455L13.5381 200.483L14.3949 201.433L3.62614 197.59L2.75764 196.635L13.4125 200.43ZM26.5341 202.816L25.0784 174.358L35.2594 175.252L35.2523 175.286L35.3457 175.284L39.2709 204.089L26.5341 202.816ZM39.7865 204.117L35.8559 175.271L46.4011 175.007L46.3988 175.039L46.4785 175.028L52.98 203.934L39.7865 204.117ZM58.2884 173.414L69.0668 170.801L69.0727 170.828L69.1196 170.812L80.934 199.019L67.4459 202.157L58.2884 173.414ZM108.564 187.904L91.5116 161.558L101.335 155.662L120.84 180.63L108.564 187.904ZM122.738 182.207L121.582 180.75L133.036 172.273L134.181 173.745L122.738 182.207ZM168.399 127.509L168.446 127.422L168.42 127.408L173.066 115.574L174.107 117.042L169.436 128.948L168.399 127.509ZM177.825 89.7776L177.838 89.6522L177.81 89.6448L177.455 78.4102L178.295 79.6375L178.659 90.9848L177.825 89.7776ZM93.5899 67.6224L89.7333 65.3594L95.5129 38.5451L101.398 41.8963L93.5899 67.6224ZM84.5353 63.1882L79.9888 61.9222L81.2347 33.7139L88.1186 35.5366L84.5353 63.1882ZM52.0101 63.7869L51.9218 63.8114L51.9448 63.8411L47.0993 65.7123L33.4081 39.7498L40.7568 36.8456L52.0101 63.7869ZM32.0245 75.1652L28.2491 78.7101L6.14025 58.7787L11.7765 53.4641L32.0245 75.1652ZM27.8961 79.0774L24.5482 82.9134L0.784788 64.8946L5.78655 59.1453L27.8961 79.0774ZM16.5301 97.3974L15.3435 101.627L15.2901 101.563L15.2512 101.823L-12.688 92.3513L-10.7816 85.7L16.5301 97.3974ZM14.4647 107.279L14.4021 111.256L14.2881 111.119L14.3512 111.632L-14.0388 106.587L-13.8771 100.022L14.4647 107.279ZM14.4164 112.162L14.8716 115.867L14.6791 115.635L14.8851 116.392L-13.2868 113.497L-14.0074 107.112L14.4164 112.162ZM16.2958 121.479L17.9595 125.282L-8.94402 126.42L-11.3905 120.657L16.2958 121.479ZM-11.5963 159.342L-4.21146 164.355L-4.23653 164.386L-4.12881 164.44L-9.08655 190.104L-18.2841 183.701L-11.5963 159.342ZM26.0489 203.256L26.0502 203.28L26.1692 203.292L27.1532 204.395L15.3936 201.781L14.3944 200.673L26.0489 203.256ZM94.9748 194.757L94.9856 194.778L95.0267 194.759L96.1733 196.146L82.8895 200.71L81.7189 199.32L94.9748 194.757ZM95.2091 194.112L80.732 166.672L91.0629 161.801L108.111 188.14L95.2091 194.112ZM177.376 103.691L176.445 102.361L176.474 102.246L176.445 102.236L177.739 90.5481L178.678 91.9052L177.376 103.691ZM175.268 65.6213L175.243 65.4866L175.214 65.4835L172.043 56.2692L172.325 56.6856L175.542 66.0245L175.268 65.6213ZM170.751 54.2752L142.306 53.2565L142.274 53.1608L142.237 53.1766L138.222 45.359L165.571 44.45L170.751 54.2752ZM141.77 53.3795L119.656 62.99L116.721 57.1177L137.706 45.4673L141.77 53.3795ZM116.082 57.025L103.579 78.0032L101.166 74.5218L112.351 51.7626L116.082 57.025ZM112.004 51.3158L100.806 74.1026L97.8646 70.9791L107.481 46.6268L112.004 51.3158ZM89.2628 65.1329L85.0257 63.352L88.6079 35.7066L95.0447 38.3087L89.2628 65.1329ZM72.9898 32.5395L74.1848 61.036L69.2191 60.838L65.518 32.3287L72.9898 32.5395ZM32.9433 39.9575L46.6223 65.8966L46.5689 65.9173L46.5887 65.9427L41.8997 68.2895L25.8882 43.5509L32.9433 39.9575ZM0.469784 65.2954L24.2338 83.3145L21.4166 87.3157L21.3909 87.2842L21.3398 87.3765L-3.83082 71.3967L0.469784 65.2954ZM21.0925 87.8234L18.7956 91.9712L18.7643 91.9331L18.709 92.0666L-7.64957 78.2025L-4.102 71.8282L21.0925 87.8234ZM-12.7953 92.8538L15.1747 102.336L14.5544 106.484L14.4788 106.393L14.4731 106.754L-13.8362 99.5051L-12.7953 92.8538ZM-13.1776 114.021L15.0289 116.92L15.9165 120.185L15.5237 119.715L16.0691 120.962L-11.5825 120.14L-13.1776 114.021ZM-18.2615 152.664L-1.08545 138.153L3.65287 142.363L3.56322 142.387L3.78023 142.531L-11.7582 158.577L-18.2615 152.664ZM27.9925 204.571L26.918 203.367L39.3419 204.609L39.3452 204.633L39.4532 204.632L40.5091 205.829L27.9925 204.571ZM68.907 203.971L67.7423 202.613L81.1343 199.497L81.1433 199.518L81.2033 199.497L82.3451 200.854L68.907 203.971ZM110.033 189.756L108.867 188.317L121.156 181.035L121.171 181.054L121.173 181.053L122.311 182.487L110.033 189.756ZM89.869 14.2898L80.8576 33.0861L80.7558 33.0591L80.7542 33.0946L73.573 32.0809L80.0876 12.9973L89.869 14.2898ZM5.38902 58.8274L0.378595 64.5865L0.358418 64.5712L0.335322 64.6039L-15.7837 56.1519L-9.10411 48.4626L5.38902 58.8274ZM18.5127 92.5398L16.7624 96.7625L16.722 96.7134L16.6691 96.902L-10.6139 85.2168L-7.87169 78.662L18.5127 92.5398ZM-6.1662 193.162L3.32574 198.016L3.94313 198.695L-5.55171 193.834L-6.1662 193.162ZM96.6747 195.954L95.504 194.538L108.391 188.572L108.403 188.592L108.425 188.579L109.57 189.993L96.6747 195.954ZM123.055 182.606L134.494 174.147L135.635 175.612L124.207 184.057L123.055 182.606ZM145.666 163.965L145.651 163.945L154.829 153.54L155.942 155.028L146.774 165.419L145.666 163.965ZM179.191 91.7541L178.828 80.4143L179.665 81.6364L180.034 92.9704L179.191 91.7541ZM179.454 80.4284L178.786 79.4543L176.864 68.8692L177.527 69.845L179.454 80.4284ZM176.629 67.6199L173.416 58.2935L173.692 58.7007L176.907 68.0291L176.629 67.6199ZM137.437 45.0336L116.46 56.6793L112.668 51.331L132.221 37.8502L137.437 45.0336ZM131.886 37.4621L112.344 50.9352L107.762 46.1849L125.61 31.1013L131.886 37.4621ZM117.548 25.0408L101.655 41.4557L95.7207 38.0768L109.484 20.569L117.548 25.0408ZM99.7327 16.7575L88.2972 35.0303L88.19 34.9869L88.1849 35.0261L81.3576 33.2184L90.3883 14.3811L99.7327 16.7575ZM79.5624 12.9654L73.0612 32.0086L72.967 31.9953L72.9684 32.0279L65.5383 31.8185L69.4905 12.7671L79.5624 12.9654ZM-16.1082 56.5574L0.0388234 65.0245L-4.26054 71.124L-4.28326 71.1095L-4.30827 71.1545L-21.8626 64.7116L-16.1082 56.5574ZM-31.0132 83.4019L-11.273 85.5731L-13.1693 92.1884L-13.2027 92.177L-13.2158 92.2605L-33.6005 92.3088L-31.0132 83.4019ZM-14.5181 107.109L-13.8034 113.444L-13.854 113.438L-13.8221 113.561L-34.5729 120.257L-35.4812 111.625L-14.5181 107.109ZM-34.488 120.766L-13.6931 114.055L-12.1111 120.124L-12.1686 120.122L-12.1121 120.256L-32.4022 129.072L-34.488 120.766ZM-32.2447 129.56L-11.9128 120.725L-9.48611 126.443L-9.55174 126.446L-9.46413 126.589L-28.9937 137.43L-32.2447 129.56ZM-28.7658 137.887L-9.19736 127.024L-5.95291 132.311L-6.02653 132.32L-5.90178 132.468L-24.3817 145.213L-28.7658 137.887ZM-18.5372 153.102L-12.1126 158.943L-12.1407 158.972L-12.04 159.04L-18.7102 183.336L-26.6965 175.905L-18.5372 153.102ZM29.5646 206.331L28.4965 205.135L41.0058 206.392L42.0693 207.596L29.5646 206.331ZM55.3565 206.164L68.7111 204.524L69.8437 205.847L56.4991 207.475L55.3565 206.164ZM84.4071 202.514L83.2418 201.129L96.5209 196.566L97.6743 197.962L84.4071 202.514ZM136.027 175.288L134.887 173.824L145.289 164.309L146.417 165.788L136.027 175.288ZM170.836 130.889L169.789 129.438L174.458 117.536L175.496 118.996L170.836 130.889ZM177.817 104.321L179.118 92.5406L180.053 93.8904L178.756 105.665L177.817 104.321ZM109.007 20.3535L95.2568 37.8441L88.7757 35.2239L100.237 16.9106L109.007 20.3535ZM58.2303 13.7509L56.8571 32.472L56.7832 32.4778L56.7892 32.5054L49.1783 33.899L47.9976 15.6929L58.2303 13.7509ZM47.4973 15.8184L48.6759 33.991L48.6147 34.0022L48.6229 34.0281L41.0862 36.1961L37.3997 18.7845L47.4973 15.8184ZM26.6248 23.1065L32.7255 39.4708L32.6934 39.4835L32.7054 39.5064L25.6237 43.1132L17.1931 27.9572L26.6248 23.1065ZM16.7528 28.2105L25.1706 43.344L25.1542 43.3524L25.168 43.3738L18.4605 47.63L7.8478 33.903L16.7528 28.2105ZM-1.22481 40.9759L11.4185 53.1019L5.76093 58.4368L5.74304 58.4207L5.72496 58.4414L-8.74465 48.093L-1.22481 40.9759ZM-22.1465 65.151L-4.5597 71.606L-8.09941 77.9659L-8.12529 77.9523L-8.14943 78.0101L-26.9002 73.6695L-22.1465 65.151ZM-27.1368 74.1385L-8.34941 78.4879L-11.0807 85.0168L-11.1099 85.0043L-11.1303 85.0749L-30.8303 82.9083L-27.1368 74.1385ZM-13.2958 92.7715L-14.33 99.3787L-14.3685 99.3689L-14.3709 99.4656L-35.1638 101.748L-33.7234 92.8199L-13.2958 92.7715ZM-35.2209 102.268L-14.3835 99.9808L-14.544 106.498L-14.5879 106.49L-14.5756 106.599L-35.494 111.105L-35.2209 102.268ZM16.9766 203.538L15.9831 202.435L27.7355 205.047L28.724 206.153L16.9766 203.538ZM70.4385 205.76L69.2812 204.408L82.7141 201.292L83.8625 202.656L70.4385 205.76ZM98.1759 197.771L97.0107 196.361L109.901 190.402L111.054 191.826L98.1759 197.771ZM175.67 118.364L174.668 116.954L177.665 104.991L178.66 106.414L175.67 118.364ZM158.635 35.073L165.227 43.9503L137.963 44.8565L137.917 44.767L137.885 44.785L132.747 37.7087L158.635 35.073ZM178.268 70.0295L177.996 69.63L174.786 60.3178L175.053 60.7128L178.268 70.0295ZM158.19 34.6049L132.4 37.2307L132.341 37.1489L132.312 37.1686L126.151 30.924L150.324 26.7914L158.19 34.6049ZM118.019 24.7027L117.936 24.6404L117.916 24.6616L110.06 20.3054L130.187 13.9292L140.141 19.3474L118.019 24.7027ZM129.443 13.6297L109.446 19.9647L109.353 19.9131L109.336 19.9346L100.828 16.5947L118.699 9.492L129.443 13.6297ZM100.133 16.3219L100.031 16.2817L100.017 16.303L90.9877 14.0068L106.502 6.44882L117.866 9.27405L100.133 16.3219ZM92.8225 4.79224L79.8619 12.4525L79.7429 12.4368L79.7356 12.4582L70.0559 12.2677L80.7303 4.5935L92.8225 4.79224ZM69.2058 12.251L69.0799 12.2485L69.0754 12.2696L59.2511 13.1179L67.5234 5.76226L79.7456 4.67385L69.2058 12.251ZM58.4024 13.1911L58.2705 13.2026L58.2689 13.2239L48.4065 15.0957L54.3508 8.28513L66.5563 5.94081L58.4024 13.1911ZM16.5779 27.7001L16.4932 27.7437L16.5047 27.7643L7.5422 33.4938L5.45255 30.5797L16.2797 23.6476L16.5779 27.7001ZM5.03748 30.8734L7.11309 33.768L7.10485 33.7733L7.12002 33.7929L-1.20647 40.2879L-1.22232 40.2727L-1.27644 40.3239L-5.0064 38.7157L5.03748 30.8734ZM-15.031 48.1708L-9.68658 48.3573L-16.2468 55.909L-16.2657 55.8991L-16.3357 55.9982L-23.0277 57.3785L-15.031 48.1708ZM-23.565 58.0108L-16.7664 56.6085L-22.3569 64.5301L-22.3776 64.5225L-22.4384 64.6314L-30.4158 67.7219L-23.565 58.0108ZM-30.9331 68.4695L-22.8279 65.3295L-27.4154 73.5502L-27.4377 73.5451L-27.4858 73.6594L-36.5869 78.5904L-30.9331 68.4695ZM-37.038 79.4146L-27.8023 74.4108L-31.3569 82.8504L-31.3807 82.8478L-31.4149 82.9653L-41.4439 89.8459L-37.038 79.4146ZM-41.7979 90.7068L-31.6391 83.737L-34.1295 92.3101L-34.1551 92.3101L-34.1743 92.4291L-44.9042 101.338L-41.7979 90.7068ZM-45.1465 102.202L-34.2976 93.1934L-35.687 101.805L-35.7142 101.808L-35.7179 101.927L-46.9001 112.918L-45.1465 102.202ZM-47.0261 113.756L-35.7406 102.663L-36.0047 111.215L-36.0337 111.221L-36.0214 111.339L-47.3918 124.425L-47.0261 113.756ZM-47.4064 125.217L-35.9486 112.031L-35.0661 120.416L-35.0965 120.426L-35.0677 120.54L-46.3511 135.702L-47.4064 125.217ZM-46.2628 136.435L-34.9079 121.177L-32.8738 129.277L-32.9051 129.29L-32.8599 129.4L-43.7729 146.598L-46.2628 136.435ZM-43.5933 147.263L-32.6226 129.974L-29.4405 137.678L-29.4723 137.696L-29.4111 137.798L-39.6758 156.957L-43.5933 147.263ZM18.5541 205.286L17.5673 204.192L29.3075 206.806L30.2926 207.909L18.5541 205.286ZM31.1342 208.087L30.0688 206.895L42.5669 208.159L43.6256 209.36L31.1342 208.087ZM44.3594 209.423L43.2492 208.164L56.2831 208.002L57.3854 209.269L44.3594 209.423ZM58.0414 209.248L56.9039 207.94L70.2424 206.313L70.2538 206.327L71.3713 207.631L58.0414 209.248ZM71.9667 207.544L70.8129 206.197L84.2316 203.095L85.3743 204.454L71.9667 207.544ZM98.5117 198.178L111.385 192.235L112.536 193.654L99.6715 199.582L98.5117 198.178ZM136.342 175.691L146.727 166.195L147.85 167.669L137.477 177.149L136.342 175.691ZM148.207 167.299L147.103 165.85L147.089 165.831L156.253 155.444L157.361 156.927L148.207 167.299ZM157.682 156.508L156.597 155.055L156.583 155.037L164.367 143.945L165.455 145.428L157.682 156.508ZM165.735 144.951L164.662 143.488L170.933 131.893L171.994 133.367L165.735 144.951ZM171.201 131.396L171.189 131.379L175.847 119.491L176.879 120.948L172.227 132.821L171.201 131.396ZM180.131 107.63L179.197 106.295L180.493 94.5275L181.42 95.8696L180.131 107.63Z" fill="white" fill-opacity="0.25"/>
</g>
<defs>
<clipPath id="clip0_260_23">
<rect width="64" height="64" rx="15" fill="white"/>
</clipPath>
</defs>
</svg>
