<svg width="1920" height="1080" viewBox="0 0 1920 1080" fill="none" xmlns="http://www.w3.org/2000/svg">
<path d="M2107.64 491.731L2107.37 483.332L2108 477.584L2107.2 478.203L2103.63 369.933L2105.44 372.596L2103.56 362.326L2103.34 361.13L2103.32 360.588L2103.16 355.761L2102.47 356.404L2083.96 255.438L2087.92 261.259L2081.78 243.539L2080.89 238.661L2080.31 239.301L2043.74 133.847L2043.9 133.637L2043.24 132.379L2041.74 128.077L2041.28 128.693L1989.33 30.7838L1989.48 30.5542L1988.56 29.319L1986.59 25.6204L1986.32 26.0491L1974.89 9.21637L1974.88 9.19962L1950.11 -27.2571L1950.36 -27.2655L1947.57 -30.9963L1946.92 -32.2309L1946.66 -32.2222L1880.53 -120.826L1881.44 -120.918L1877.73 -124.575L1876.99 -125.569L1876.75 -125.544L1797.81 -203.571L1798.83 -203.744L1794.16 -207.181L1793.37 -207.961L1793.15 -207.924L1702.87 -274.385L1704 -274.656L1698.72 -277.515L1698.33 -277.724L1697.53 -278.319L1697.51 -278.314L1686.43 -286.483L1688.95 -282.806L1597.28 -332.458L1598.51 -332.844L1591.87 -335.389L1582.69 -340.363L1584.06 -338.382L1482.8 -377.187L1484.11 -377.707L1476.57 -379.574L1469 -382.472L1469.87 -381.232L1361.14 -408.129L1362.51 -408.792L1354.19 -409.849L1347.73 -411.446L1348.33 -410.593L1234.15 -425.098L1235.52 -425.905L1226.65 -426.05L1221.02 -426.764L1221.47 -426.135L1103.56 -428.063L1104.87 -429L1095.74 -428.19L1090.81 -428.271L1091.16 -427.785L971.126 -417.15L972.278 -418.169L963.326 -416.459L958.967 -416.073L959.254 -415.681L838.617 -392.626L839.511 -393.645L831.243 -391.217L827.395 -390.48L827.636 -390.157L707.661 -354.91L708.224 -355.822L701.2 -353.012L697.804 -352.014L698.013 -351.736L579.99 -304.495L580.208 -305.179L574.894 -302.455L571.893 -301.251L572.078 -301.01L457.416 -242.183L457.385 -242.595L453.93 -240.394L451.284 -239.037L451.455 -238.818L341.858 -169.002L341.722 -169.192L339.742 -167.654L337.465 -166.204L337.621 -166.007L235.831 -86.9262L235.675 -87.1189L233.782 -85.3345L231.828 -83.8158L230.472 -82.7602L230.87 -82.5895L139.38 3.63824L139.203 3.42361L137.326 5.57379L132.983 9.6676L133.73 9.69366L53.5874 101.51L53.3821 101.263L51.5587 103.833L46.6932 109.41L47.7604 109.191L-20.4928 205.456L-20.7376 205.167L-22.0744 207.547L-22.4566 208.226L-27.243 214.977L-25.9717 214.487L-81.9433 314.177L-82.2432 313.828L-83.7821 317.453L-87.9929 324.953L-86.661 324.235L-129.984 426.292L-130.363 425.858L-131.625 430.157L-134.945 437.978L-133.665 437.104L-163.984 540.349L-164.48 539.787L-165.322 544.904L-167.608 552.689L-166.445 551.727L-183.408 654.886L-184.083 654.13L-184.295 660.279L-185.522 667.743L-184.518 666.762L-188.016 768.34L-189 767.251L-188.239 774.778L-188.478 781.717L-187.634 780.751L-177.69 879.041L-179.249 877.326L-176.898 886.874L-176.262 893.16L-175.576 892.243L-152.657 985.318L-155.493 982.191L-150.245 995.115L-148.875 1000.68L-148.331 999.827L-113.794 1084.87L-120.524 1077.54L-108.466 1097.99L-106.511 1102.8L-106.089 1102.02L-52.6247 1192.68L-52.7242 1192.91L-51.8635 1193.97L-49.4657 1198.04L-49.1503 1197.33L17.9386 1280.41L17.8539 1280.65L18.9483 1281.66L21.6639 1285.02L21.7752 1284.71L51.1105 1316.53L64.0339 1330.53L63.5893 1330.62L67.1118 1333.88L67.9626 1334.93L68.1988 1334.89L147.873 1408.64L147.045 1408.87L151.344 1411.85L152.251 1412.69L152.466 1412.63L243.825 1476.05L242.947 1476.37L247.997 1478.94L248.927 1479.59L248.938 1479.58L266.577 1491.84L260.674 1485.41L351.094 1531.52L350.192 1531.93L355.892 1533.96L356.848 1534.45L356.866 1534.44L368.195 1540.24L365.635 1537.43L468.303 1574L467.407 1574.52L473.638 1575.9L483.004 1579.24L481.58 1577.67L593.969 1602.66L593.123 1603.26L598.85 1603.84L599.669 1603.92L607.252 1605.61L606.347 1604.6L726.288 1616.77L725.536 1617.44L732.151 1617.36L738.467 1618L737.84 1617.29L863.413 1615.81L862.812 1616.51L869.158 1615.75L874.535 1615.68L874.073 1615.15L1003.25 1599.56L1002.84 1600.24L1008.61 1598.91L1013.2 1598.36L1012.84 1597.94L1143.63 1567.95L1143.41 1568.55L1148.31 1566.88L1152.25 1565.97L1151.96 1565.63L1282.21 1521.25L1282.17 1521.72L1286.02 1519.95L1289.38 1518.81L1289.14 1518.52L1416.6 1460.08L1416.68 1460.41L1419.47 1458.76L1422.34 1457.45L1422.13 1457.2L1544.32 1385.36L1544.47 1385.55L1546.4 1384.13L1548.72 1382.77L1548.8 1382.72L1548.62 1382.5L1662.55 1298.77L1662.72 1298.99L1664.64 1297.24L1667.56 1295.09L1667.23 1294.89L1770.04 1201.4L1770.23 1201.65L1772.17 1199.46L1775.58 1196.36L1775.04 1196.23L1865.04 1094.76L1865.26 1095.06L1867.18 1092.34L1870.79 1088.28L1870.06 1088.27L1945.93 980.659L1946.21 981.036L1948.03 977.68L1951.5 972.765L1950.62 972.92L2011.37 861.062L2011.72 861.552L2013.36 857.391L2016.36 851.876L2015.41 852.193L2060.37 738.023L2060.84 738.688L2062.14 733.526L2064.44 727.674L2063.49 728.129L2092.23 613.685L2092.91 614.642L2093.62 608.161L2095.11 602.233L2094.21 602.791L2106.61 490.237L2107.64 491.731ZM2058.6 726.808L2048.76 713L2048.65 712.832L2078.49 594.151L2088.38 608.212L2058.6 726.808ZM1545.46 1378.53L1533.99 1364.17L1648.08 1280.28L1659.43 1294.78L1545.46 1378.53ZM1541.19 1381.32L1418.89 1453.22L1407.33 1439.03L1529.75 1366.99L1541.19 1381.32ZM1280.78 1516.38L1148.45 1561.47L1136.86 1547.77L1269.31 1502.56L1280.78 1516.38ZM465.677 1567.68L358.345 1529.45L349.769 1520.06L457.139 1558.27L465.677 1567.68ZM345.609 1523.02L250.849 1474.7L244.743 1468.05L339.478 1516.31L345.609 1523.02ZM232.011 1461.67L154.605 1407.94L154.427 1407.75L231.702 1461.34L232.011 1461.67ZM145.31 5.0191L235.949 -80.4108L273.599 -64.2607L198.828 6.14966L198.654 6.02539L197.938 6.84558L145.31 5.0191ZM457.822 -236.688L571.68 -295.104L555.6 -244.608L554.404 -244.131L554.482 -243.923L460.829 -195.998L457.822 -236.688ZM695.852 -345.405L659.271 -286.028L657.947 -285.641L657.992 -285.429L561.691 -247.036L577.995 -298.228L695.852 -345.405ZM824.177 -383.852L765.72 -317.215L764.377 -316.961L764.39 -316.752L666.533 -288.15L703.682 -348.453L824.177 -383.852ZM1786.2 -206.742L1545.87 -165.863L1545.15 -166.585L1544.91 -166.379L1474.29 -219.33L1696.42 -272.832L1786.2 -206.742ZM2096.19 350.234L2089.58 340.644L2070.36 235.578L2076.93 245.182L2096.19 350.234ZM2102.01 474.732L2093.68 462.729L2090 350.188L2098.31 362.243L2102.01 474.732ZM-103.28 1096.8L-0.315796 905.587L42.6892 977.093L42.3727 977.31L43.1356 978.235L-50.0901 1187.01L-103.28 1096.8ZM1226.99 -420.889L1344.93 -405.909L1191.42 -331.496L1190.31 -331.777L1190.21 -331.565L1096.13 -343.934L1226.99 -420.889ZM848.074 1593.12L717.852 1594.73L706.713 1582.19L837.016 1580.5L848.074 1593.12ZM-46.8303 1192.14L46.7366 982.6L100.587 1047.87L100.284 1048.12L101.18 1048.93L19.9464 1274.83L-46.8303 1192.14ZM1994.18 837.303L1931.53 952.577L1920.89 938.134L1920.76 937.958L1983.49 822.568L1994.18 837.303ZM1850.96 1067.58L1839.94 1052.91L1917.81 942.501L1928.73 957.32L1850.96 1067.58ZM1526.56 1362.99L1404.09 1435.05L1392.5 1420.82L1515.09 1348.61L1526.56 1362.99ZM449.942 1550.32L342.481 1512.08L333.868 1502.65L441.329 1540.81L441.444 1540.94L449.942 1550.32ZM1540.92 -163.027L1362.8 -13.2532L1309.85 -53.9103L1468.72 -217.169L1540.92 -163.027ZM216.036 1444.3L138.632 1390.62L138.344 1390.31L215.727 1443.96L216.015 1444.28L216.036 1444.3ZM282.035 -64.8697L364.593 -128.945L470.433 7.26593L470.42 7.27429L470.577 7.47412L408.371 55.5215L408.213 55.353L408.113 55.4466L282.035 -64.8697ZM877.053 -332.867L979.146 -341.638L939.756 -152.715L938.907 -152.739L938.945 -152.44L863.312 -146.48L877.053 -332.867ZM832.626 1575.48L702.261 1577.17L691.087 1564.57L820.628 1562.78L820.68 1563.02L821.623 1562.9L832.626 1575.48ZM234.719 851.472L274.837 899.027L274.014 899.182L275.693 900.667L104.467 1044.6L49.8097 978.355L234.719 851.472ZM477.879 8.56284L544.493 -33.494L704.259 212.114L704.009 212.238L704.187 212.463L659.731 240.209L477.879 8.56284ZM560.894 -241.257L659.062 -280.395L695.817 -107.672L695.345 -107.537L695.446 -107.296L621.917 -78.3845L560.894 -241.257ZM702.231 -104.231L777.507 -125.774L865.028 149.558L863.737 149.78L864.004 150.126L814.722 163.736L702.231 -104.231ZM782.461 -126.911L858.625 -140.785L920.857 139.656L919.071 139.777L919.399 140.203L870.069 148.69L782.461 -126.911ZM2030.92 687.994L2021 674.072L2021.4 673.054L2021.12 672.936L2050.89 554.89L2060.86 569.064L2030.92 687.994ZM1914.64 938.201L1836.74 1048.65L1825.68 1033.92L1903.66 923.344L1914.64 938.201ZM972.604 1558.96L839.173 1575.26L827.704 1562.15L960.484 1545.84L960.555 1546.06L961.336 1545.88L972.604 1558.96ZM863.673 -141.42L939.603 -147.401L976.567 135.895L925.972 139.311L863.673 -141.42ZM1263.69 233.039L1229.47 206.094L1307.4 -49.3977L1359.81 -9.15414L1263.69 233.039ZM2068.89 310.596L2062.31 301.031L2062.27 299.721L2061.98 299.669L2042.99 195.553L2049.68 205.323L2068.89 310.596ZM1906.74 918.979L1907.23 918.291L1906.98 918.135L1969.48 803.228L1980.19 818.018L1917.44 933.458L1906.74 918.979ZM1741.84 1156.26L1730.57 1141.56L1822.39 1037.97L1833.53 1052.82L1741.84 1156.26ZM1738.27 1159.94L1634.35 1254.52L1622.93 1239.9L1726.95 1145.18L1738.27 1159.94ZM411.856 59.238L473.708 11.4628L655.403 242.908L655.388 242.917L655.55 243.12L614.066 274.872L411.856 59.238ZM1096.64 -134.796L1084.2 145.539L1036.35 138.211L1024.41 -144.941L1096.64 -134.796ZM1182.06 184.062L1188.64 192.836L1188.6 192.814L1190.55 195.399L1152.97 179.662L1144.43 168.327L1182.06 184.062ZM1103.58 1507.51L985.458 1226.9L1091.94 1189.4L1236.48 1461.99L1103.58 1507.51ZM200.132 1426.98L199.146 1426.3L199.82 1426.64L199.977 1426.81L200.132 1426.98ZM240.165 850.065L497.438 820.662L524.484 852.036L280.558 897.948L240.165 850.065ZM447.926 701.156L455.608 710.267L464.771 743.785L457.086 734.681L447.926 701.156ZM447.544 545.827L459.632 502.958L471.053 516.762L459.008 559.573L447.544 545.827ZM504.805 407.571L516.616 422.008L493.402 463.734L481.547 449.359L504.805 407.571ZM1967.86 794.933L1683.5 646.671L1721.58 551.277L2014.87 675.794L1967.86 794.933ZM452.426 698.629L444.871 689.668L440.197 651.811L449.639 663.062L454.337 700.895L452.664 698.911L452.424 698.623L452.426 698.629ZM770.588 205.556L723.662 228.915L711.861 213.995L758.851 190.594L770.588 205.556ZM882.19 173.61L893.624 188.366L843.943 202.015L832.49 187.306L882.19 173.61ZM1135.26 164.587L1144.84 177.288L1102.74 165.572L1093.15 152.924L1135.26 164.587ZM1262.96 238.923L1265.7 242.585L1242.89 224.596L1240.18 220.984L1262.96 238.923ZM2056.66 298.72L1758.23 245.482L1742.77 155.616L2036.22 186.634L2056.66 298.72ZM1902.68 915.429L1630.58 744.099L1681.32 651.258L1965.72 799.541L1902.68 915.429ZM541.601 1258.81L609.731 1060.26L685.563 1066.23L643.55 1267.71L541.601 1258.81ZM1057.92 176.165L1010.12 174.218L999.442 160.255L1047.27 162.178L1057.92 176.165ZM1737.71 156.05L1753.13 245.695L1519.6 295.758L1508.8 229.556L1737.71 156.05ZM1089.87 1184.75L983.955 1222.05L943.102 1030.14L1021.43 1002.1L1089.87 1184.75ZM461.811 570.851L472.814 584.052L466.525 626.131L455.5 612.966L461.811 570.851ZM896.985 192.705L908.371 207.429L858.744 221.028L847.32 206.349L896.985 192.705ZM1277.46 258.32L1280.12 261.866L1257.36 243.909L1254.72 240.383L1277.46 258.32ZM1253.48 862.177L1314.42 806.171L1481.04 924.707L1398.35 1000.43L1253.48 862.177ZM866.668 963.585L917.037 956.355L854.559 1046.98L778.486 1057.67L866.668 963.585ZM923.955 955.249L974.831 942.505L938.34 1026.33L861.895 1045.27L923.955 955.249ZM1086.96 896.731L1100.04 959.435L1026.14 994.533L1037.27 920.427L1086.96 896.731ZM1031.83 922.541L1020.65 996.99L944.825 1024.13L981.096 940.811L1031.83 922.541ZM652.536 935.924L695.415 949.738L530.667 1039.61L465.684 1018.22L652.536 935.924ZM538.286 1041.23L702.234 951.8L747.797 960.534L607.433 1054.88L538.286 1041.23ZM615.432 1055.62L755.01 961.796L802.695 965.319L687.8 1061.31L615.432 1055.62ZM1463.07 595.228L1491.17 525.41L1716.59 550.087L1678.75 644.901L1463.07 595.228ZM1394.39 1003.66L1303.5 1071.21L1182.56 915.563L1249.58 865.457L1394.39 1003.66ZM1143.41 862.717L1187.6 829.633L1245.15 862.429L1179.49 911.521L1143.41 862.717ZM1231.44 789.537L1308.79 804.454L1249.42 859.023L1191.68 826.121L1231.44 789.537ZM1418.32 667.069L1306.65 693.276L1330.13 650.544L1454.03 601.951L1418.32 667.069ZM1350.54 600.312L1484.57 528.231L1457.67 595.069L1332.91 644.007L1350.54 600.312ZM1364.18 549.414L1505.16 453.311L1487.37 520.965L1352.48 593.508L1364.18 549.414ZM1303.19 699.297L1414.07 673.279L1369.9 735.801L1274.04 740.594L1303.19 699.297ZM1270.16 745.87L1365.37 741.109L1313.27 800.15L1235.5 785.154L1270.16 745.87ZM1492.74 520.477L1511.29 449.928L1743.01 449.393L1718.28 545.168L1492.74 520.477ZM1506.96 445.944L1365.2 542.577L1370.83 498.553L1515.37 378.429L1506.96 445.944ZM1516.12 371.208L1370.92 491.886L1370.44 448.578L1515.09 304.797L1516.12 371.208ZM1484.67 921.071L1317.98 802.482L1371.84 741.441L1557.72 838.436L1484.67 921.071ZM1560.97 834.412L1375 737.367L1420.94 672.33L1623.23 746.223L1560.97 834.412ZM1626.04 741.846L1423.64 667.911L1460.91 599.936L1676.46 649.583L1626.04 741.846ZM1755.69 343.933L1521.16 369.56L1520.09 300.841L1753.57 250.79L1755.69 343.933ZM1514.82 297.916L1369.63 442.236L1363.02 400.222L1504.33 233.63L1514.82 297.916ZM1357.86 400.05L1365.36 447.744L1365.91 497.086L1359.48 547.356L1346.13 597.704L1326.07 647.429L1299.53 695.705L1266.98 741.808L1228.84 785.032L1185.79 824.648L1138.45 860.087L1087.57 890.82L1033.98 916.373L978.484 936.359L921.925 950.525L865.2 958.667L809.163 960.708L754.671 956.683L702.439 946.671L653.326 930.846L608.005 909.545L567.026 883.08L539.023 858.808L522.067 831.966L503.437 789.775L491.167 745.061L485.341 698.452L486.073 650.616L493.259 602.199L506.826 553.887L526.595 506.33L552.232 460.21L583.419 416.145L619.736 374.752L660.628 336.609L705.627 302.234L754.067 272.093L805.29 246.682L858.563 226.34L913.248 211.356L968.444 201.962L1023.51 198.369L1077.53 200.654L1129.83 208.762L1179.56 222.685L1226.06 242.204L1268.55 267.083L1306.44 296.983L1324.78 316.371L1343.58 354.667L1357.86 400.05ZM628.647 300.844L640.537 315.672L603.073 350.617L591.14 335.836L628.647 300.844ZM842.14 207.95L853.678 222.775L805.106 241.322L793.529 226.567L842.14 207.95ZM749.075 269.225L704.769 296.792L692.964 281.991L737.333 254.383L749.075 269.225ZM700.598 299.694L659.431 331.141L647.587 316.36L688.772 284.866L700.598 299.694ZM673.753 265.994L685.611 280.899L644.414 312.403L632.513 297.565L673.753 265.994ZM618.17 369.278L606.269 354.572L643.717 319.64L655.555 334.409L618.17 369.278ZM753.536 266.696L741.843 251.913L788.694 228.617L800.35 243.47L753.536 266.696ZM738.628 247.846L726.876 232.981L773.787 209.631L785.495 224.542L738.628 247.846ZM602.733 358.262L614.595 372.921L581.507 410.639L569.62 396.028L602.733 358.262ZM578.25 414.674L549.94 454.676L538.088 440.198L566.443 400.153L578.25 414.674ZM521.384 505.662L503.705 548.195L492.093 534.191L509.794 491.619L521.384 505.662ZM488.109 602.411L481.866 644.454L470.87 631.321L477.157 589.266L488.109 602.411ZM480.996 651.312L480.378 691.756L470.007 679.425L470.625 638.926L480.996 651.312ZM485.104 737.385L475.725 726.269L471.03 688.518L480.387 699.641L485.104 737.385ZM495.561 780.216L487.967 771.231L478.792 737.766L486.38 746.761L495.561 780.216ZM498.877 791.993L510.436 818.168L506.6 813.643L495.076 787.496L498.877 791.993ZM1164.39 203.242L1173.86 215.822L1131.87 204.062L1122.38 191.536L1164.39 203.242ZM1182 218.208L1173.56 206.992L1211.11 222.743L1219.54 233.965L1182 218.208ZM1228.91 237.994L1222.31 229.212L1253.82 247.63L1260.42 256.445L1228.91 237.994ZM1294.51 281.109L1271.81 263.194L1269.19 259.705L1291.91 277.633L1294.51 281.109ZM1239.35 228.318L1245.98 237.173L1214.44 218.731L1207.79 209.892L1239.35 228.318ZM1072.5 195.362L1024.76 193.342L1014.14 179.462L1061.91 181.409L1072.5 195.362ZM1079.18 195.773L1069.02 182.39L1114.42 189.425L1124.56 202.807L1079.18 195.773ZM1007.65 179.327L1018.58 193.605L969.335 196.819L958.39 182.565L1007.65 179.327ZM952.411 183.102L963.575 197.642L913.769 206.121L902.54 191.6L952.411 183.102ZM535.303 444.802L547.034 459.132L523.899 500.747L512.127 486.479L535.303 444.802ZM490.299 539.97L501.635 553.641L489.645 596.335L478.288 582.702L490.299 539.97ZM455.63 670.194L465.038 681.392L469.735 719.165L460.324 707.997L455.63 670.194ZM1159.37 196.573L1117.32 184.858L1107.78 172.243L1149.86 183.953L1159.37 196.573ZM1099.84 170.14L1109.27 182.614L1109.25 182.61L1110.01 183.605L1064.6 176.569L1054.38 163.152L1099.84 170.14ZM992.959 160.124L1003.94 174.486L954.669 177.722L943.648 163.41L992.959 160.124ZM722.37 235.453L734.167 250.379L689.781 277.997L677.941 263.117L722.37 235.453ZM587.605 339.528L599.499 354.263L566.375 392.037L554.439 377.371L587.605 339.528ZM465.649 632.984L465.031 673.502L454.609 661.095L455.25 620.565L465.649 632.984ZM471.009 728.542L480.192 762.035L477.318 758.635L476.271 757.391L476.278 757.405L472.541 752.985L463.384 719.496L471.009 728.542ZM398.662 987.012L606.63 914.503L646.272 933.139L458.658 1015.77L398.662 987.012ZM459.701 1021.59L527.377 1043.87L434.479 1236.67L343.827 1205.82L459.701 1021.59ZM695.913 1061.14L810.085 965.755L859.366 963.959L770.589 1058.68L695.913 1061.14ZM1104.68 956.857L1091.63 894.298L1139.21 865.562L1175.28 914.342L1104.68 956.857ZM1744.04 444.317L1512.21 444.851L1520.94 374.69L1755.38 349.074L1744.04 444.317ZM1503.1 227.244L1361.37 394.325L1348.74 354.173L1483.32 166.019L1503.1 227.244ZM1224.82 208.951L1231.51 217.871L1199.91 199.418L1193.23 190.503L1224.82 208.951ZM1205.07 214.704L1167.51 198.95L1159.03 187.698L1196.59 203.43L1205.07 214.704ZM948.909 178.549L899.021 187.053L887.746 172.502L937.668 163.953L948.909 178.549ZM838.653 203.47L838.882 203.765L790.252 222.388L778.621 207.579L827.314 188.91L838.653 203.47ZM520.071 426.223L531.851 440.584L508.667 482.278L496.864 467.935L520.071 426.223ZM494.53 473.078L506.149 487.197L488.44 529.785L476.778 515.727L494.53 473.078ZM474.981 521.5L486.368 535.231L474.353 577.981L462.944 564.291L474.981 521.5ZM449.637 655.173L439.181 642.714L439.822 602.15L450.278 614.627L449.637 655.173ZM479.623 769.211L483.504 773.802L495.071 800.051L491.174 795.456L479.623 769.211ZM532.346 1045.23L604.632 1059.5L536.493 1258.09L536.483 1258.11L439.48 1237.97L532.346 1045.23ZM759.267 1264.74L774.094 1063.41L853.66 1052.23L866.57 1250.42L759.267 1264.74ZM871.585 1249.45L858.676 1051.29L938.232 1031.59L979.085 1223.52L871.585 1249.45ZM1026.12 1000.16L1101.87 964.18L1197.19 1134.67L1094.56 1182.82L1026.12 1000.16ZM1306.62 1075.21L1398.01 1007.28L1615.68 1239.25L1501.45 1323.37L1306.62 1075.21ZM1727.08 1137.86L1488.63 924.25L1562.11 841.12L1818.83 1034.34L1727.08 1137.86ZM1565.25 837.138L1627.89 748.404L1900.01 919.738L1821.99 1030.37L1565.25 837.138ZM1039.72 143.862L1085.2 150.829L1095.43 164.328L1049.96 157.339L1039.72 143.862ZM658.709 247.09L670.595 262.025L629.339 293.608L617.388 278.716L658.709 247.09ZM613.52 281.998L625.463 296.879L587.947 331.879L575.984 317.067L613.52 281.998ZM584.372 335.525L551.194 373.381L539.206 358.658L572.451 320.758L584.372 335.525ZM551.263 381.497L563.122 396.071L534.754 436.132L522.853 421.622L551.263 381.497ZM528.547 856.438L560.23 883.9L332.743 944.339L285.139 902.249L528.547 856.438ZM338.207 948.137L565.079 887.863L601.033 911.081L392.365 983.833L338.207 948.137ZM392.748 989.806L454.952 1019.62L339.045 1203.9L255.93 1162.96L392.748 989.806ZM253.852 1167.59L336.329 1208.22L336.12 1208.55L337.225 1208.93L307.093 1475.49L204.226 1423.19L253.852 1167.59ZM311.944 1477.69L342.135 1210.6L432.26 1241.27L432.095 1241.62L433.188 1241.84L424.492 1517.58L311.944 1477.69ZM648.704 1267.82L690.703 1066.39L768.987 1063.82L754.155 1265.19L648.704 1267.82ZM1201.67 1132.3L1106.34 961.778L1178.35 918.41L1299.26 1074.02L1201.67 1132.3ZM1619.62 1236.05L1401.92 1004.04L1485.08 927.879L1723.5 1141.46L1619.62 1236.05ZM2016.4 670.932L1723.18 546.447L1748.06 450.122L2046.75 550.571L2016.4 670.932ZM2047.61 545.506L1749.04 445.099L1760.45 349.376L2060.92 425.948L2047.61 545.506ZM2061.04 420.741L1760.76 344.219L1758.64 250.708L2057.34 303.998L2061.04 420.741ZM2034.67 181.368L1741.88 150.42L1741.71 149.434L1741.32 149.56L1713.29 65.5964L1998.13 75.7437L2034.67 181.368ZM988.85 154.749L989.256 155.285L939.923 158.572L928.87 144.203L978.244 140.868L988.85 154.749ZM812.41 169.815L824.051 184.726L775.343 203.402L763.682 188.541L812.41 169.815ZM479.213 454.497L490.884 468.649L473.126 511.316L461.431 497.183L479.213 454.497ZM464.175 750.934L468.076 755.553L479.629 781.808L475.718 777.182L464.175 750.934ZM438.223 1242.89L534.823 1262.95L534.705 1263.3L535.736 1263.39L550.252 1545.73L429.51 1519.1L438.223 1242.89ZM824.608 1557.42L759.593 1269.82L866.9 1255.5L866.92 1255.8L867.558 1255.64L958.907 1540.92L824.608 1557.42ZM1708.2 66.3549L1736.49 151.109L1507.58 224.618L1487.31 161.87L1708.2 66.3549ZM1481.24 160.226L1346.35 348.803L1327.85 311.147L1452.51 103.038L1481.24 160.226ZM1032.61 142.892L1042.75 156.229L1043.29 156.939L995.433 155.014L984.719 140.993L1032.61 142.892ZM922.895 144.751L933.842 158.978L934.166 159.402L884.223 167.956L872.913 153.35L922.895 144.751ZM867.362 154.462L878.56 168.925L878.83 169.274L829.114 182.974L817.586 168.209L867.362 154.462ZM707.353 216.469L719.203 231.447L674.763 259.123L662.896 244.211L707.353 216.469ZM536.028 362.784L547.941 377.417L519.522 417.554L507.588 402.967L536.028 362.784ZM446.409 552.38L457.47 565.642L451.154 607.779L440.071 594.554L446.409 552.38ZM472.194 781.139L494.177 815.926L236.486 845.378L203.838 792.441L472.194 781.139ZM332.437 950.41L388.316 987.239L251.467 1160.44L176.991 1110.13L332.437 950.41ZM198.571 1425.73L198.543 1425.88L122.604 1373.23L122.302 1372.9L198.571 1425.73ZM218.954 1439.99L212.73 1433.2L306.487 1480.88L306.458 1481.13L307.757 1481.59L313.87 1488.28L218.954 1439.99ZM424.324 1522.9L424.316 1523.15L425.579 1523.43L434.135 1532.87L326.588 1494.68L317.914 1485.19L424.324 1522.9ZM555.369 1546.61L540.831 1263.83L642.508 1272.71L642.438 1273.05L643.37 1273.03L682.571 1559.26L555.369 1546.61ZM687.72 1559.54L648.465 1272.9L753.78 1270.28L753.756 1270.6L754.553 1270.49L819.483 1557.72L687.72 1559.54ZM872.497 1254.45L980.141 1228.48L980.2 1228.75L980.668 1228.59L1098.66 1508.88L963.953 1540.07L872.497 1254.45ZM1374.6 1398.44L1204.3 1136.64L1302.4 1078.05L1497.2 1326.16L1374.6 1398.44ZM1516.16 1341.82L1504.6 1327.35L1619 1243.11L1630.43 1257.74L1516.16 1341.82ZM1972.17 798.291L1972.64 797.427L1972.37 797.289L2018.78 679.695L2029.17 694.282L1982.52 812.591L1972.17 798.291ZM2066.3 423.363L2066.44 422.116L2066.15 422.043L2062.61 310.406L2071 322.602L2074.64 435.358L2066.3 423.363ZM1225.05 203.209L1186.54 180.722L1244.26 -85.729L1303.03 -52.4285L1225.05 203.209ZM1134.62 159.147L1089.22 146.567L1101.66 -133.736L1170.41 -115.625L1134.62 159.147ZM809.797 165.096L808.915 165.339L809.145 165.635L760.753 184.228L624.019 -73.758L697.411 -102.617L809.797 165.096ZM610.201 278.161L572.496 313.387L351.696 115.33L407.985 62.5191L610.201 278.161ZM568.971 317.036L535.535 355.154L298.212 176.103L348.164 118.973L568.971 317.036ZM455.459 499.08L443.609 541.111L443.075 540.471L442.688 543.054L163.66 448.937L182.699 382.845L455.459 499.08ZM434.832 597.275L434.207 636.787L433.069 635.431L433.698 640.526L150.169 590.399L151.784 525.157L434.832 597.275ZM434.35 645.794L438.896 682.61L436.974 680.301L439.031 687.829L157.679 659.057L150.482 595.609L434.35 645.794ZM453.119 738.381L469.735 776.164L201.05 787.477L176.617 730.203L453.119 738.381ZM174.562 1114.61L248.314 1164.43L248.064 1164.74L249.14 1165.27L199.627 1420.29L107.772 1356.67L174.562 1114.61ZM550.523 1550.98L550.536 1551.23L551.725 1551.35L561.552 1562.3L444.109 1536.33L434.13 1525.32L550.523 1550.98ZM1238.88 1466.53L1238.99 1466.74L1239.4 1466.55L1250.85 1480.33L1118.19 1525.69L1106.5 1511.87L1238.88 1466.53ZM1241.22 1460.13L1096.64 1187.45L1199.82 1139.05L1370.07 1400.78L1241.22 1460.13ZM2061.82 561.622L2052.52 548.404L2052.81 547.255L2052.53 547.159L2065.45 431.019L2074.82 444.505L2061.82 561.622ZM2040.76 183.324L2040.52 181.986L2040.23 181.955L2008.56 90.3936L2011.37 94.5308L2043.51 187.331L2040.76 183.324ZM1995.66 70.5793L1711.57 60.4568L1711.26 59.5056L1710.89 59.6625L1670.79 -18.0202L1943.93 -27.0525L1995.66 70.5793ZM1706.23 61.6793L1485.38 157.177L1456.06 98.8252L1665.64 -16.9439L1706.23 61.6793ZM1449.68 97.904L1324.81 306.362L1300.71 271.768L1412.42 45.6123L1449.68 97.904ZM1408.96 41.1719L1297.12 267.602L1267.74 236.564L1363.78 -5.42252L1408.96 41.1719ZM1181.84 178.471L1139.52 160.775L1175.3 -113.935L1239.58 -88.0784L1181.84 178.471ZM1019.32 -145.406L1031.25 137.76L981.662 135.793L944.699 -147.501L1019.32 -145.406ZM619.377 -71.6942L755.988 186.06L755.456 186.265L755.653 186.518L708.825 209.838L548.918 -35.9874L619.377 -71.6942ZM295.066 180.085L532.396 359.139L504.26 398.899L504.004 398.586L503.494 399.503L252.116 240.714L295.066 180.085ZM501.024 403.944L478.085 445.161L477.772 444.782L477.22 446.109L213.978 308.343L249.407 245.001L501.024 403.944ZM162.588 453.93L441.923 548.153L435.728 589.372L434.973 588.47L434.916 592.059L152.192 520.024L162.588 453.93ZM158.769 664.272L440.466 693.075L449.332 725.522L445.408 720.852L450.855 733.239L174.7 725.069L158.769 664.272ZM107.997 1048.26L279.534 904.063L326.855 945.902L325.96 946.14L328.127 947.569L172.945 1107.02L107.997 1048.26ZM569.934 1564.05L559.203 1552.09L683.28 1564.43L683.312 1564.67L684.391 1564.66L694.937 1576.55L569.934 1564.05ZM978.546 1558.09L966.914 1544.59L1100.66 1513.63L1100.75 1513.84L1101.35 1513.64L1112.75 1527.11L978.546 1558.09ZM1389.26 1416.84L1377.62 1402.54L1500.36 1330.18L1500.5 1330.37L1500.52 1330.36L1511.89 1344.6L1389.26 1416.84ZM1187.89 -326.751L1097.9 -139.975L1096.88 -140.243L1096.86 -139.89L1025.14 -149.963L1090.21 -339.595L1187.89 -326.751ZM344.194 115.814L294.155 173.042L293.953 172.889L293.723 173.215L132.743 89.2283L199.452 12.8205L344.194 115.814ZM475.26 450.811L457.779 492.771L457.376 492.283L456.848 494.157L184.373 378.042L211.76 312.908L475.26 450.811ZM228.792 1450.68L323.588 1498.91L329.754 1505.66L234.929 1457.36L228.792 1450.68ZM1255.86 1478.43L1244.17 1464.35L1372.87 1405.07L1372.99 1405.27L1373.21 1405.14L1384.64 1419.19L1255.86 1478.43ZM1519.32 1345.79L1633.56 1261.73L1644.96 1276.29L1530.82 1360.2L1519.32 1345.79ZM1745.13 1160.55L1744.98 1160.36L1836.64 1056.96L1847.76 1071.75L1756.2 1175L1745.13 1160.55ZM2079.95 443.003L2076.32 330.321L2084.68 342.464L2088.36 455.089L2079.95 443.003ZM2082.57 330.461L2075.9 320.782L2056.7 215.598L2063.33 225.295L2082.57 330.461ZM2054.36 203.184L2022.27 110.508L2025.03 114.555L2057.14 207.25L2054.36 203.184ZM1662.95 -21.2537L1453.46 94.4682L1415.58 41.3228L1610.86 -92.6345L1662.95 -21.2537ZM1607.52 -96.4908L1412.35 37.3904L1366.59 -9.81329L1544.84 -159.697L1607.52 -96.4908ZM1464.33 -219.92L1305.6 -56.8069L1246.33 -90.3824L1383.79 -264.355L1464.33 -219.92ZM1286.4 -302.23L1172.19 -120.655L1171.12 -121.086L1171.07 -120.697L1102.89 -138.659L1193.08 -325.844L1286.4 -302.23ZM1084.96 -339.912L1020.03 -150.681L1019.09 -150.813L1019.11 -150.49L944.902 -152.57L984.373 -341.882L1084.96 -339.912ZM129.502 93.2571L290.762 177.394L247.824 238.004L247.597 237.86L247.347 238.307L72.0331 174.284L129.502 93.2571ZM-19.3538 360.008L177.791 381.583L158.853 447.318L158.519 447.206L158.388 448.035L-45.1931 448.515L-19.3538 360.008ZM145.382 595.587L152.52 658.53L152.015 658.478L152.334 659.692L-54.9043 726.233L-63.975 640.454L145.382 595.587ZM-54.0566 731.292L153.621 664.609L169.421 724.913L168.846 724.896L169.411 726.223L-33.225 813.824L-54.0566 731.292ZM-31.6526 818.672L171.401 730.888L195.637 787.705L194.981 787.733L195.856 789.152L0.815079 896.877L-31.6526 818.672ZM3.09103 901.417L198.52 793.475L230.922 846.014L230.187 846.098L231.433 847.574L46.8751 974.22L3.09103 901.417ZM105.243 1052.61L169.406 1110.65L169.126 1110.94L170.131 1111.62L103.516 1353.04L23.757 1279.2L105.243 1052.61ZM585.634 1581.54L574.967 1569.66L699.898 1582.15L710.518 1594.11L585.634 1581.54ZM843.217 1579.88L976.589 1563.59L987.9 1576.74L854.628 1592.91L843.217 1579.88ZM1133.34 1543.61L1121.71 1529.85L1254.32 1484.51L1265.84 1498.38L1133.34 1543.61ZM1648.87 1273.07L1637.49 1258.52L1741.37 1163.98L1752.64 1178.67L1648.87 1273.07ZM1996.5 831.879L1986.05 817.462L2032.68 699.196L2043.04 713.706L1996.5 831.879ZM2066.22 567.881L2079.22 450.818L2088.55 464.231L2075.61 581.231L2066.22 567.881ZM1379.02 -266.497L1241.7 -92.6947L1176.97 -118.732L1291.43 -300.709L1379.02 -266.497ZM871.917 -332.106L858.203 -146.077L857.465 -146.019L857.526 -145.745L781.516 -131.897L769.724 -312.809L871.917 -332.106ZM764.728 -311.562L776.498 -130.983L775.887 -130.871L775.969 -130.614L700.7 -109.07L663.883 -282.088L764.728 -311.562ZM556.274 -239.141L617.202 -76.5307L616.882 -76.4047L617.001 -76.177L546.277 -40.3364L462.08 -190.94L556.274 -239.141ZM457.683 -188.423L541.751 -38.0427L541.588 -37.9597L541.726 -37.7472L474.738 4.54617L368.75 -131.857L457.683 -188.423ZM278.142 -61.5741L404.41 58.9202L347.908 111.933L347.729 111.772L347.549 111.978L203.041 9.14728L278.142 -61.5741ZM69.1975 178.651L244.836 242.793L209.486 305.992L209.227 305.856L208.986 306.431L21.7227 263.298L69.1975 178.651ZM19.3601 267.959L206.989 311.178L179.711 376.056L179.419 375.931L179.217 376.633L-17.5272 355.104L19.3601 267.959ZM157.589 453.113L147.261 518.768L146.877 518.67L146.853 519.632L-60.8056 542.309L-46.4199 453.594L157.589 453.113ZM-61.3756 547.479L146.727 524.751L145.124 589.507L144.685 589.429L144.808 590.518L-64.103 635.289L-61.3756 547.479ZM459.918 1553.79L449.996 1542.83L567.367 1568.78L577.24 1579.78L459.918 1553.79ZM993.84 1575.87L982.283 1562.43L1116.44 1531.47L1127.91 1545.03L993.84 1575.87ZM1270.85 1496.48L1259.22 1482.47L1387.95 1423.25L1399.47 1437.41L1270.85 1496.48ZM2044.78 707.421L2034.78 693.41L2064.7 574.538L2074.65 588.678L2044.78 707.421ZM1874.65 -120.231L1940.49 -32.0182L1668.21 -23.0131L1667.75 -23.903L1667.42 -23.7234L1616.11 -94.0399L1874.65 -120.231ZM2070.73 227.128L2068.01 223.159L2035.96 130.624L2038.63 134.549L2070.73 227.128ZM1870.21 -124.882L1612.65 -98.7898L1612.05 -99.6029L1611.77 -99.4071L1550.24 -161.459L1791.66 -202.525L1870.21 -124.882ZM1469.02 -223.279L1468.2 -223.899L1467.99 -223.688L1389.54 -266.975L1590.55 -330.335L1689.95 -276.495L1469.02 -223.279ZM1583.11 -333.311L1383.4 -270.361L1382.48 -270.873L1382.31 -270.66L1297.34 -303.848L1475.82 -374.427L1583.11 -333.311ZM1290.4 -306.559L1289.37 -306.958L1289.24 -306.746L1199.06 -329.564L1354 -404.666L1467.49 -376.592L1290.4 -306.559ZM1217.39 -421.128L1087.95 -345.008L1086.76 -345.164L1086.69 -344.951L990.019 -346.845L1096.62 -423.102L1217.39 -421.128ZM981.53 -347.011L980.272 -347.036L980.228 -346.826L882.112 -338.396L964.728 -411.489L1086.79 -422.304L981.53 -347.011ZM873.636 -337.669L872.319 -337.555L872.303 -337.343L773.807 -318.743L833.173 -386.419L955.069 -409.714L873.636 -337.669ZM455.936 -193.494L455.091 -193.062L455.205 -192.856L365.698 -135.924L344.828 -164.881L452.959 -233.764L455.936 -193.494ZM340.683 -161.962L361.412 -133.198L361.33 -133.146L361.481 -132.951L278.325 -68.4107L278.167 -68.5622L277.626 -68.0533L240.375 -84.0339L340.683 -161.962ZM140.26 9.92035L193.634 11.7741L128.118 86.8145L127.929 86.7157L127.23 87.7007L60.3977 101.417L140.26 9.92035ZM55.0313 107.699L122.929 93.765L67.0964 172.482L66.8899 172.406L66.2827 173.488L-13.387 204.198L55.0313 107.699ZM-18.5536 211.626L62.3923 180.425L16.577 262.113L16.3551 262.062L15.874 263.198L-75.0181 312.197L-18.5536 211.626ZM-79.5231 320.387L12.7132 270.665L-22.7861 354.528L-23.0241 354.502L-23.3654 355.67L-123.524 424.042L-79.5231 320.387ZM-127.06 432.596L-25.6043 363.338L-50.476 448.528L-50.7314 448.528L-50.923 449.711L-158.082 538.24L-127.06 432.596ZM-160.502 546.819L-52.1547 457.305L-66.0303 542.88L-66.3023 542.909L-66.3394 544.094L-178.016 653.311L-160.502 546.819ZM-179.273 661.633L-66.5663 551.406L-69.2035 636.383L-69.4934 636.445L-69.3698 637.614L-182.926 767.652L-179.273 661.633ZM-183.072 775.525L-68.6427 644.489L-59.8298 727.814L-60.1335 727.911L-59.8459 729.049L-172.532 879.71L-183.072 775.525ZM-171.651 886.995L-58.2494 735.377L-37.9353 815.861L-38.2482 815.996L-37.7969 817.084L-146.785 987.977L-171.651 886.995ZM-144.99 994.588L-35.4268 822.793L-3.64735 899.343L-3.96512 899.519L-3.353 900.537L-105.867 1090.92L-144.99 994.588ZM475.673 1571.16L465.818 1560.29L583.067 1586.27L592.905 1597.22L475.673 1571.16ZM601.31 1598.99L590.67 1587.15L715.488 1599.71L726.061 1611.64L601.31 1598.99ZM733.389 1612.27L722.302 1599.75L852.471 1598.14L863.48 1610.73L733.389 1612.27ZM870.031 1610.53L858.671 1597.53L991.881 1581.37L991.995 1581.5L1003.16 1594.46L870.031 1610.53ZM1009.1 1593.6L997.58 1580.21L1131.59 1549.39L1143 1562.89L1009.1 1593.6ZM1274.21 1500.52L1402.77 1441.47L1414.26 1455.57L1285.79 1514.48L1274.21 1500.52ZM1652.01 1277.07L1755.73 1182.71L1766.94 1197.36L1663.35 1291.56L1652.01 1277.07ZM1770.51 1193.68L1759.49 1179.29L1759.35 1179.1L1850.87 1075.89L1861.93 1090.62L1770.51 1193.68ZM1865.14 1086.45L1854.3 1072.02L1854.16 1071.83L1931.9 961.62L1942.76 976.358L1865.14 1086.45ZM1945.56 971.615L1934.85 957.082L1997.47 841.857L2008.08 856.51L1945.56 971.615ZM2000.16 836.918L2000.03 836.747L2046.55 718.625L2056.86 733.1L2010.4 851.08L2000.16 836.918ZM2089.34 600.76L2080.01 587.494L2092.95 470.562L2102.21 483.898L2089.34 600.76Z" fill="white" fill-opacity="0.25"/>
</svg>
